{"asset":{"version":"2.0","generator":"Codex minimal road segment"},"scene":0,"scenes":[{"nodes":[0]}],"nodes":[{"mesh":0,"name":"Street_Straight"}],"meshes":[{"primitives":[{"attributes":{"POSITION":0,"NORMAL":1,"TEXCOORD_0":2},"indices":3,"material":0}]}],"materials":[{"name":"RoadMaterial","pbrMetallicRoughness":{"baseColorFactor":[0.23,0.24,0.27,1.0],"metallicFactor":0.06,"roughnessFactor":0.82}}],"buffers":[{"byteLength":140,"uri":"data:application/octet-stream;base64,"}],"bufferViews":[{"buffer":0,"byteOffset":0,"byteLength":48,"target":34962},{"buffer":0,"byteOffset":48,"byteLength":48,"target":34962},{"buffer":0,"byteOffset":96,"byteLength":32,"target":34962},{"buffer":0,"byteOffset":128,"byteLength":12,"target":34963}],"accessors":[{"bufferView":0,"componentType":5126,"count":4,"type":"VEC3","min":[-0.5,0.0,-0.5],"max":[0.5,0.0,0.5]},{"bufferView":1,"componentType":5126,"count":4,"type":"VEC3"},{"bufferView":2,"componentType":5126,"count":4,"type":"VEC2"},{"bufferView":3,"componentType":5123,"count":6,"type":"SCALAR"}]}